<svg xmlns="http://www.w3.org/2000/svg" xmlns:xlink="http://www.w3.org/1999/xlink" width="500" zoomAndPan="magnify" viewBox="0 0 375 374.999991" height="500" preserveAspectRatio="xMidYMid meet" version="1.0"><rect x="-37.5" width="450" fill="#ffffff" y="-37.499999" height="449.999989" fill-opacity="1"/><rect x="-37.5" width="450" fill="#000000" y="-37.499999" height="449.999989" fill-opacity="1"/><path stroke-linecap="round" transform="matrix(0.354839, -0.660749, 0.660749, 0.354839, 60.420399, 254.732707)" fill="none" stroke-linejoin="miter" d="M 4.002501 4.001114 L 193.713464 4.000353 " stroke="#ffffff" stroke-width="8" stroke-opacity="1" stroke-miterlimit="4"/><path stroke-linecap="round" transform="matrix(0.749995, -0.00260882, 0.00260882, 0.749995, 7.980287, 314.841308)" fill="none" stroke-linejoin="miter" d="M 4.001973 4.001576 L 474.879846 3.998865 " stroke="#ffffff" stroke-width="8" stroke-opacity="1" stroke-miterlimit="4"/><path stroke-linecap="round" transform="matrix(0.325323, -0.67577, 0.67577, 0.325323, 7.51762, 318.553601)" fill="none" stroke-linejoin="miter" d="M 4.000199 4.002044 L 87.799267 4.001994 " stroke="#ffffff" stroke-width="8" stroke-opacity="1" stroke-miterlimit="4"/><path stroke-linecap="round" transform="matrix(0.732043, -0.163135, 0.163135, 0.732043, 35.567324, 258.189943)" fill="none" stroke-linejoin="miter" d="M 4.000738 3.999163 L 364.592366 4.00015 " stroke="#ffffff" stroke-width="8" stroke-opacity="1" stroke-miterlimit="4"/><path stroke-linecap="round" transform="matrix(0.346019, 0.66541, -0.66541, 0.346019, 305.457347, 197.189195)" fill="none" stroke-linejoin="miter" d="M 3.999304 3.999784 L 175.245466 4.000687 " stroke="#ffffff" stroke-width="8" stroke-opacity="1" stroke-miterlimit="4"/><path stroke-linecap="round" transform="matrix(0.717639, 0.217931, -0.217931, 0.717639, 130.497066, 124.475133)" fill="none" stroke-linejoin="miter" d="M 4.000766 4.001631 L 175.346394 3.999369 " stroke="#ffffff" stroke-width="8" stroke-opacity="1" stroke-miterlimit="4"/><path stroke-linecap="round" transform="matrix(0.394915, 0.637607, -0.637607, 0.394915, 256.916678, 161.914223)" fill="none" stroke-linejoin="miter" d="M 3.998061 3.999738 L 63.798994 3.998308 " stroke="#ffffff" stroke-width="8" stroke-opacity="1" stroke-miterlimit="4"/><path stroke-linecap="round" transform="matrix(0.362978, -0.656313, 0.656313, 0.362978, 142.354771, 130.84149)" fill="none" stroke-linejoin="miter" d="M 4.00128 4.00182 L 113.327312 3.996892 " stroke="#ffffff" stroke-width="8" stroke-opacity="1" stroke-miterlimit="4"/><path stroke-linecap="round" transform="matrix(0.326318, 0.67529, -0.67529, 0.326318, 187.864519, 53.992693)" fill="none" stroke-linejoin="miter" d="M 4.001118 4.000366 L 151.571758 3.998522 " stroke="#ffffff" stroke-width="8" stroke-opacity="1" stroke-miterlimit="4"/></svg>